<svg xmlns="http://www.w3.org/2000/svg" viewBox="0 0 64 64" fill="none" aria-hidden="true">
  <title>NeO</title>
  <defs>
    <linearGradient id="perpy-ring" x1="0%" y1="0%" x2="100%" y2="100%">
      <stop offset="0%" stop-color="#7f94ff"/>
      <stop offset="100%" stop-color="#d94fff"/>
    </linearGradient>
  </defs>
  <rect width="64" height="64" rx="15" fill="#06080d"/>
  <circle cx="32" cy="32" r="25.5" fill="none" stroke="#3a5088" stroke-width="9" stroke-dasharray="15.5 5.2" stroke-linecap="butt" transform="rotate(12 32 32)"/>
  <circle cx="32" cy="32" r="25.5" fill="none" stroke="url(#perpy-ring)" stroke-width="3.4" stroke-dasharray="15.5 5.2" stroke-linecap="square" opacity="0.98" transform="rotate(12 32 32)"/>
  <g transform="translate(32,32)" stroke-linejoin="miter">
    <path d="M 0,-12.2 L 10.57,-6.1 L 10.57,6.1 L 0,12.2 L -10.57,6.1 L -10.57,-6.1 Z" stroke="#b8bfff" stroke-width="1.2" opacity="0.98"/>
    <path d="M 0,-7.2 L 6.24,-3.6 L 6.24,3.6 L 0,7.2 L -6.24,3.6 L -6.24,-3.6 Z" stroke="#9f8dff" stroke-width="1" opacity="0.96"/>
    <path d="M 0,-7.2 L 0,-12.2 M 6.24,-3.6 L 10.57,-6.1 M 6.24,3.6 L 10.57,6.1 M 0,7.2 L 0,12.2 M -6.24,3.6 L -10.57,6.1 M -6.24,-3.6 L -10.57,-6.1" stroke="#8f78ff" stroke-width="0.8" opacity="0.9"/>
    <circle r="2.1" stroke="#e4dcff" stroke-width="0.95" fill="#0d111a"/>
  </g>
</svg>
